{
    "asset" : {
        "generator" : "Khronos glTF Blender I/O v1.0.5",
        "version" : "2.0"
    },
    "scene" : 0,
    "scenes" : [
        {
            "name" : "Scene",
            "nodes" : [
                4,
                5,
                6
            ]
        }
    ],
    "nodes" : [
        {
            "mesh" : 0,
            "name" : "mff_plant_mushroom_blue_0"
        },
        {
            "children" : [
                0
            ],
            "name" : "mff_plant_mushroom_blue"
        },
        {
            "children" : [
                1
            ],
            "name" : "Root"
        },
        {
            "children" : [
                2
            ],
            "name" : "RootNode (model correction matrix)"
        },
        {
            "children" : [
                3
            ],
            "name" : "RootNode (gltf orientation matrix)"
        },
        {
            "name" : "Light",
            "rotation" : [
                0.16907575726509094,
                0.7558803558349609,
                -0.27217137813568115,
                0.570947527885437
            ],
            "translation" : [
                4.076245307922363,
                5.903861999511719,
                -1.0054539442062378
            ]
        },
        {
            "name" : "Camera",
            "rotation" : [
                0.483536034822464,
                0.33687159419059753,
                -0.20870360732078552,
                0.7804827094078064
            ],
            "translation" : [
                7.358891487121582,
                4.958309173583984,
                6.925790786743164
            ]
        }
    ],
    "materials" : [
        {
            "doubleSided" : true,
            "name" : "medievalfantasyforest_unwrap",
            "pbrMetallicRoughness" : {
                "baseColorTexture" : {
                    "index" : 0,
                    "texCoord" : 0
                },
                "metallicFactor" : 0,
                "roughnessFactor" : 1
            }
        }
    ],
    "meshes" : [
        {
            "name" : "mff_plant_mushroom_blue_0",
            "primitives" : [
                {
                    "attributes" : {
                        "POSITION" : 0,
                        "NORMAL" : 1,
                        "TEXCOORD_0" : 2
                    },
                    "indices" : 3,
                    "material" : 0
                }
            ]
        }
    ],
    "textures" : [
        {
            "source" : 0
        }
    ],
    "images" : [
        {
            "mimeType" : "image/png",
            "name" : "medievalfantasyforest_unwrap_baseColor",
            "uri" : "medievalfantasyforest_unwrap_baseColor.png"
        }
    ],
    "accessors" : [
        {
            "bufferView" : 0,
            "componentType" : 5126,
            "count" : 250,
            "max" : [
                0.2047799974679947,
                0.41214001178741455,
                0.2140900045633316
            ],
            "min" : [
                -0.2173299938440323,
                -0.0022299999836832285,
                -0.21741999685764313
            ],
            "type" : "VEC3"
        },
        {
            "bufferView" : 1,
            "componentType" : 5126,
            "count" : 250,
            "type" : "VEC3"
        },
        {
            "bufferView" : 2,
            "componentType" : 5126,
            "count" : 250,
            "type" : "VEC2"
        },
        {
            "bufferView" : 3,
            "componentType" : 5123,
            "count" : 930,
            "type" : "SCALAR"
        }
    ],
    "bufferViews" : [
        {
            "buffer" : 0,
            "byteLength" : 3000,
            "byteOffset" : 0
        },
        {
            "buffer" : 0,
            "byteLength" : 3000,
            "byteOffset" : 3000
        },
        {
            "buffer" : 0,
            "byteLength" : 2000,
            "byteOffset" : 6000
        },
        {
            "buffer" : 0,
            "byteLength" : 1860,
            "byteOffset" : 8000
        }
    ],
    "buffers" : [
        {
            "byteLength" : 9860,
            "uri" : "untitled.bin"
        }
    ]
}
