{
  "accessors": [
    {
      "bufferView": 1,
      "componentType": 5126,
      "count": 65532,
      "max": [
        263.81939697265625,
        239.18319702148438,
        171.46249389648438
      ],
      "min": [
        119.881103515625,
        177.78880310058594,
        69.883399963378906
      ],
      "type": "VEC3"
    },
    {
      "bufferView": 1,
      "byteOffset": 786384,
      "componentType": 5126,
      "count": 65532,
      "max": [
        0.99986135959625244,
        0.99997234344482422,
        0.99984782934188843
      ],
      "min": [
        -0.99983561038970947,
        -0.9999077320098877,
        -0.99994438886642456
      ],
      "type": "VEC3"
    },
    {
      "bufferView": 0,
      "componentType": 5125,
      "count": 369261,
      "max": [
        65531
      ],
      "min": [
        0
      ],
      "type": "SCALAR"
    },
    {
      "bufferView": 1,
      "byteOffset": 1572768,
      "componentType": 5126,
      "count": 65532,
      "max": [
        191.722900390625,
        220.68440246582031,
        117.03099822998047
      ],
      "min": [
        140.31280517578125,
        169.07229614257812,
        60.264198303222656
      ],
      "type": "VEC3"
    },
    {
      "bufferView": 1,
      "byteOffset": 2359152,
      "componentType": 5126,
      "count": 65532,
      "max": [
        0.99998301267623901,
        0.99997693300247192,
        0.99999725818634033
      ],
      "min": [
        -0.99983096122741699,
        -0.99997144937515259,
        -0.99999558925628662
      ],
      "type": "VEC3"
    },
    {
      "bufferView": 0,
      "byteOffset": 1477044,
      "componentType": 5125,
      "count": 360870,
      "max": [
        65531
      ],
      "min": [
        0
      ],
      "type": "SCALAR"
    },
    {
      "bufferView": 1,
      "byteOffset": 3145536,
      "componentType": 5126,
      "count": 65532,
      "max": [
        175.68269348144531,
        203.1708984375,
        121.12149810791016
      ],
      "min": [
        157.48269653320312,
        169.05419921875,
        98.36419677734375
      ],
      "type": "VEC3"
    },
    {
      "bufferView": 1,
      "byteOffset": 3931920,
      "componentType": 5126,
      "count": 65532,
      "max": [
        0.99997979402542114,
        0.999991774559021,
        0.99998617172241211
      ],
      "min": [
        -0.9999968409538269,
        -0.99995601177215576,
        -0.9998699426651001
      ],
      "type": "VEC3"
    },
    {
      "bufferView": 0,
      "byteOffset": 2920524,
      "componentType": 5125,
      "count": 353625,
      "max": [
        65531
      ],
      "min": [
        0
      ],
      "type": "SCALAR"
    },
    {
      "bufferView": 1,
      "byteOffset": 4718304,
      "componentType": 5126,
      "count": 65532,
      "max": [
        225.7803955078125,
        234.95889282226562,
        134.33819580078125
      ],
      "min": [
        149.77200317382812,
        173.90339660644531,
        50.521800994873047
      ],
      "type": "VEC3"
    },
    {
      "bufferView": 1,
      "byteOffset": 5504688,
      "componentType": 5126,
      "count": 65532,
      "max": [
        0.99986916780471802,
        0.99998265504837036,
        0.99996048212051392
      ],
      "min": [
        -0.99997538328170776,
        -0.9999927282333374,
        -0.99999725818634033
      ],
      "type": "VEC3"
    },
    {
      "bufferView": 0,
      "byteOffset": 4335024,
      "componentType": 5125,
      "count": 359355,
      "max": [
        65531
      ],
      "min": [
        0
      ],
      "type": "SCALAR"
    },
    {
      "bufferView": 1,
      "byteOffset": 6291072,
      "componentType": 5126,
      "count": 65532,
      "max": [
        255.53909301757812,
        237.84010314941406,
        163.55320739746094
      ],
      "min": [
        74.303398132324219,
        182.09730529785156,
        24.048299789428711
      ],
      "type": "VEC3"
    },
    {
      "bufferView": 1,
      "byteOffset": 7077456,
      "componentType": 5126,
      "count": 65532,
      "max": [
        0.99993765354156494,
        0.99989300966262817,
        0.99985373020172119
      ],
      "min": [
        -0.99993634223937988,
        -0.99996483325958252,
        -0.99992507696151733
      ],
      "type": "VEC3"
    },
    {
      "bufferView": 0,
      "byteOffset": 5772444,
      "componentType": 5125,
      "count": 359376,
      "max": [
        65531
      ],
      "min": [
        0
      ],
      "type": "SCALAR"
    },
    {
      "bufferView": 1,
      "byteOffset": 7863840,
      "componentType": 5126,
      "count": 65532,
      "max": [
        165.36900329589844,
        240.16799926757812,
        173.73609924316406
      ],
      "min": [
        63.819400787353516,
        178.38479614257812,
        69.22039794921875
      ],
      "type": "VEC3"
    },
    {
      "bufferView": 1,
      "byteOffset": 8650224,
      "componentType": 5126,
      "count": 65532,
      "max": [
        0.99994570016860962,
        0.99998587369918823,
        0.9999842643737793
      ],
      "min": [
        -0.99999743700027466,
        -0.99991321563720703,
        -0.99998795986175537
      ],
      "type": "VEC3"
    },
    {
      "bufferView": 0,
      "byteOffset": 7209948,
      "componentType": 5125,
      "count": 363135,
      "max": [
        65531
      ],
      "min": [
        0
      ],
      "type": "SCALAR"
    },
    {
      "bufferView": 1,
      "byteOffset": 9436608,
      "componentType": 5126,
      "count": 65532,
      "max": [
        172.13609313964844,
        213.97140502929688,
        120.05010223388672
      ],
      "min": [
        147.39469909667969,
        169.07380676269531,
        67.499099731445312
      ],
      "type": "VEC3"
    },
    {
      "bufferView": 1,
      "byteOffset": 10222992,
      "componentType": 5126,
      "count": 65532,
      "max": [
        0.99997591972351074,
        0.9999929666519165,
        0.99999916553497314
      ],
      "min": [
        -0.99999743700027466,
        -0.99997007846832275,
        -0.999969482421875
      ],
      "type": "VEC3"
    },
    {
      "bufferView": 0,
      "byteOffset": 8662488,
      "componentType": 5125,
      "count": 351288,
      "max": [
        65531
      ],
      "min": [
        0
      ],
      "type": "SCALAR"
    },
    {
      "bufferView": 1,
      "byteOffset": 11009376,
      "componentType": 5126,
      "count": 34199,
      "max": [
        252.72599792480469,
        239.5137939453125,
        167.03900146484375
      ],
      "min": [
        68.971000671386719,
        169.30230712890625,
        24.048299789428711
      ],
      "type": "VEC3"
    },
    {
      "bufferView": 1,
      "byteOffset": 11419764,
      "componentType": 5126,
      "count": 34199,
      "max": [
        0.99999696016311646,
        0.99997866153717041,
        0.99996048212051392
      ],
      "min": [
        -0.99993634223937988,
        -0.99974411725997925,
        -0.99993836879730225
      ],
      "type": "VEC3"
    },
    {
      "bufferView": 0,
      "byteOffset": 10067640,
      "componentType": 5125,
      "count": 156876,
      "max": [
        34198
      ],
      "min": [
        0
      ],
      "type": "SCALAR"
    }
  ],
  "asset": {
    "extras": {
      "author": "Pobaby (https://sketchfab.com/Pobaby)",
      "license": "CC-BY-NC-4.0 (http://creativecommons.org/licenses/by-nc/4.0/)",
      "source": "https://sketchfab.com/models/3efb94ddc21341808adcd33ba8507eb0",
      "title": "Monster Hunter dragon"
    },
    "generator": "Sketchfab-3.42.3",
    "version": "2.0"
  },
  "bufferViews": [
    {
      "buffer": 0,
      "byteLength": 10695144,
      "byteOffset": 0,
      "name": "floatBufferViews",
      "target": 34963
    },
    {
      "buffer": 0,
      "byteLength": 11830152,
      "byteOffset": 10695144,
      "byteStride": 12,
      "name": "floatBufferViews",
      "target": 34962
    }
  ],
  "buffers": [
    {
      "byteLength": 22525296,
      "uri": "scene.bin"
    }
  ],
  "materials": [
    {
      "doubleSided": true,
      "name": "Scene_-_Root",
      "pbrMetallicRoughness": {
        "baseColorFactor": [
          1,
          1,
          1,
          1
        ],
        "metallicFactor": 0,
        "roughnessFactor": 0.59999999999999998
      }
    }
  ],
  "meshes": [
    {
      "primitives": [
        {
          "attributes": {
            "NORMAL": 1,
            "POSITION": 0
          },
          "indices": 2,
          "material": 0,
          "mode": 4
        }
      ]
    },
    {
      "primitives": [
        {
          "attributes": {
            "NORMAL": 4,
            "POSITION": 3
          },
          "indices": 5,
          "material": 0,
          "mode": 4
        }
      ]
    },
    {
      "primitives": [
        {
          "attributes": {
            "NORMAL": 7,
            "POSITION": 6
          },
          "indices": 8,
          "material": 0,
          "mode": 4
        }
      ]
    },
    {
      "primitives": [
        {
          "attributes": {
            "NORMAL": 10,
            "POSITION": 9
          },
          "indices": 11,
          "material": 0,
          "mode": 4
        }
      ]
    },
    {
      "primitives": [
        {
          "attributes": {
            "NORMAL": 13,
            "POSITION": 12
          },
          "indices": 14,
          "material": 0,
          "mode": 4
        }
      ]
    },
    {
      "primitives": [
        {
          "attributes": {
            "NORMAL": 16,
            "POSITION": 15
          },
          "indices": 17,
          "material": 0,
          "mode": 4
        }
      ]
    },
    {
      "primitives": [
        {
          "attributes": {
            "NORMAL": 19,
            "POSITION": 18
          },
          "indices": 20,
          "material": 0,
          "mode": 4
        }
      ]
    },
    {
      "primitives": [
        {
          "attributes": {
            "NORMAL": 22,
            "POSITION": 21
          },
          "indices": 23,
          "material": 0,
          "mode": 4
        }
      ]
    }
  ],
  "nodes": [
    {
      "children": [
        1
      ],
      "name": "RootNode (gltf orientation matrix)",
      "rotation": [
        -0.70710678118654746,
        -0,
        -0,
        0.70710678118654757
      ]
    },
    {
      "children": [
        2
      ],
      "name": "RootNode (model correction matrix)"
    },
    {
      "children": [
        3,
        4,
        5,
        6,
        7,
        8,
        9,
        10
      ],
      "name": "all-all-7.stl.cleaner.materialmerger.gles"
    },
    {
      "mesh": 0,
      "name": ""
    },
    {
      "mesh": 1,
      "name": ""
    },
    {
      "mesh": 2,
      "name": ""
    },
    {
      "mesh": 3,
      "name": ""
    },
    {
      "mesh": 4,
      "name": ""
    },
    {
      "mesh": 5,
      "name": ""
    },
    {
      "mesh": 6,
      "name": ""
    },
    {
      "mesh": 7,
      "name": ""
    }
  ],
  "scene": 0,
  "scenes": [
    {
      "name": "OSG_Scene",
      "nodes": [
        0
      ]
    }
  ]
}

