{
  "accessors": [
    {
      "bufferView": 1,
      "componentType": 5126,
      "count": 1634,
      "max": [
        0.58126997947692871,
        2.1343700885772705,
        0.58126997947692871
      ],
      "min": [
        -0.58126997947692871,
        -1.6656299829483032,
        -0.58126997947692871
      ],
      "type": "VEC3"
    },
    {
      "bufferView": 1,
      "byteOffset": 19608,
      "componentType": 5126,
      "count": 1634,
      "max": [
        0.99941372871398926,
        1,
        0.99941372871398926
      ],
      "min": [
        -0.99941372871398926,
        -1,
        -0.99941372871398926
      ],
      "type": "VEC3"
    },
    {
      "bufferView": 0,
      "componentType": 5125,
      "count": 9216,
      "max": [
        1633
      ],
      "min": [
        0
      ],
      "type": "SCALAR"
    },
    {
      "bufferView": 1,
      "byteOffset": 39216,
      "componentType": 5126,
      "count": 240,
      "max": [
        0.2905299961566925,
        1.019629955291748,
        0.2905299961566925
      ],
      "min": [
        -0.2905299961566925,
        0.45877999067306519,
        -0.2905299961566925
      ],
      "type": "VEC3"
    },
    {
      "bufferView": 1,
      "byteOffset": 42096,
      "componentType": 5126,
      "count": 240,
      "max": [
        0.99708259105682373,
        0.36580604314804077,
        0.99708259105682373
      ],
      "min": [
        -0.99708259105682373,
        -0.15687708556652069,
        -0.99708259105682373
      ],
      "type": "VEC3"
    },
    {
      "bufferView": 0,
      "byteOffset": 36864,
      "componentType": 5125,
      "count": 864,
      "max": [
        239
      ],
      "min": [
        0
      ],
      "type": "SCALAR"
    }
  ],
  "asset": {
    "extras": {
      "author": "Vas3D (https://sketchfab.com/vas3d)",
      "license": "CC-BY-4.0 (http://creativecommons.org/licenses/by/4.0/)",
      "source": "https://sketchfab.com/3d-models/bowling-pin-513488fe22524a9d93c550cf982ed2e9",
      "title": "Bowling pin"
    },
    "generator": "Sketchfab-6.34.0",
    "version": "2.0"
  },
  "bufferViews": [
    {
      "buffer": 0,
      "byteLength": 40320,
      "byteOffset": 0,
      "name": "floatBufferViews",
      "target": 34963
    },
    {
      "buffer": 0,
      "byteLength": 44976,
      "byteOffset": 40320,
      "byteStride": 12,
      "name": "floatBufferViews",
      "target": 34962
    }
  ],
  "buffers": [
    {
      "byteLength": 85296,
      "uri": "scene.bin"
    }
  ],
  "materials": [
    {
      "doubleSided": true,
      "emissiveFactor": [
        0,
        0,
        0
      ],
      "name": "material",
      "pbrMetallicRoughness": {
        "baseColorFactor": [
          0.80000001192092896,
          0.80000001192092896,
          0.80000001192092896,
          1
        ],
        "metallicFactor": 0,
        "roughnessFactor": 0.59999999999999998
      }
    },
    {
      "doubleSided": true,
      "emissiveFactor": [
        0,
        0,
        0
      ],
      "name": "Stripe",
      "pbrMetallicRoughness": {
        "baseColorFactor": [
          0.80000007152557373,
          0,
          0.0077395010739564896,
          1
        ],
        "metallicFactor": 0,
        "roughnessFactor": 0.59999999999999998
      }
    }
  ],
  "meshes": [
    {
      "name": "Pin_0",
      "primitives": [
        {
          "attributes": {
            "NORMAL": 1,
            "POSITION": 0
          },
          "indices": 2,
          "material": 0,
          "mode": 4
        }
      ]
    },
    {
      "name": "Pin_1",
      "primitives": [
        {
          "attributes": {
            "NORMAL": 4,
            "POSITION": 3
          },
          "indices": 5,
          "material": 1,
          "mode": 4
        }
      ]
    }
  ],
  "nodes": [
    {
      "children": [
        1
      ],
      "name": "RootNode (gltf orientation matrix)",
      "rotation": [
        -0.70710678118654746,
        -0,
        -0,
        0.70710678118654757
      ]
    },
    {
      "children": [
        2
      ],
      "name": "RootNode (model correction matrix)"
    },
    {
      "children": [
        3,
        5
      ],
      "name": "Root"
    },
    {
      "children": [
        4
      ],
      "matrix": [
        -0.29086000000000006,
        0.95517000000000007,
        -0.05519000000000001,
        0,
        -0.77110000000000001,
        -0.19988000000000003,
        0.60452000000000006,
        0,
        0.56639000000000006,
        0.21839000000000003,
        0.7946700000000001,
        0,
        4.0762500000000008,
        1.00545,
        5.9038600000000008,
        1
      ],
      "name": "Lamp"
    },
    {
      "name": "Lamp"
    },
    {
      "children": [
        6,
        7
      ],
      "matrix": [
        1,
        0,
        0,
        0,
        0,
        -0,
        1,
        0,
        0,
        -1,
        -0,
        0,
        0,
        0,
        1.7000000000000002,
        1
      ],
      "name": "Pin"
    },
    {
      "mesh": 0,
      "name": "Pin_0"
    },
    {
      "mesh": 1,
      "name": "Pin_1"
    }
  ],
  "scene": 0,
  "scenes": [
    {
      "name": "OSG_Scene",
      "nodes": [
        0
      ]
    }
  ]
}

