{
  "accessors": [
    {
      "bufferView": 2,
      "componentType": 5126,
      "count": 995,
      "max": [
        6.2032961845397949,
        6.404022216796875,
        0.83279299736022949
      ],
      "min": [
        -6.6047468185424805,
        -6.4040207862854004,
        -0.81807202100753784
      ],
      "type": "VEC3"
    },
    {
      "bufferView": 2,
      "byteOffset": 11940,
      "componentType": 5126,
      "count": 995,
      "max": [
        0.99667978286743164,
        0.99631363153457642,
        0.0033162166364490986
      ],
      "min": [
        -0.99917459487915039,
        -0.99973845481872559,
        -1
      ],
      "type": "VEC3"
    },
    {
      "bufferView": 3,
      "componentType": 5126,
      "count": 995,
      "max": [
        0,
        0,
        0,
        1
      ],
      "min": [
        0,
        0,
        0,
        1
      ],
      "type": "VEC4"
    },
    {
      "bufferView": 1,
      "componentType": 5126,
      "count": 995,
      "max": [
        0,
        0
      ],
      "min": [
        0,
        0
      ],
      "type": "VEC2"
    },
    {
      "bufferView": 0,
      "componentType": 5125,
      "count": 3087,
      "max": [
        994
      ],
      "min": [
        0
      ],
      "type": "SCALAR"
    },
    {
      "bufferView": 2,
      "byteOffset": 23880,
      "componentType": 5126,
      "count": 24408,
      "max": [
        6.2032961845397949,
        6.404022216796875,
        5.7012290954589844
      ],
      "min": [
        -6.6047458648681641,
        -6.4040207862854004,
        -0.58482497930526733
      ],
      "type": "VEC3"
    },
    {
      "bufferView": 2,
      "byteOffset": 316776,
      "componentType": 5126,
      "count": 24408,
      "max": [
        0.99987548589706421,
        0.99981129169464111,
        0.99999606609344482
      ],
      "min": [
        -0.99979156255722046,
        -0.99974483251571655,
        -0.9999769926071167
      ],
      "type": "VEC3"
    },
    {
      "bufferView": 3,
      "byteOffset": 15920,
      "componentType": 5126,
      "count": 24408,
      "max": [
        0.99989104270935059,
        0.99999547004699707,
        0.99974560737609863,
        1
      ],
      "min": [
        -0.99974638223648071,
        -0.99998354911804199,
        -0.99921309947967529,
        -1
      ],
      "type": "VEC4"
    },
    {
      "bufferView": 1,
      "byteOffset": 7960,
      "componentType": 5126,
      "count": 24408,
      "max": [
        0.99605798721313477,
        0.99886500835418701
      ],
      "min": [
        0.012694999575614929,
        0.0037869999650865793
      ],
      "type": "VEC2"
    },
    {
      "bufferView": 0,
      "byteOffset": 12348,
      "componentType": 5125,
      "count": 108990,
      "max": [
        24407
      ],
      "min": [
        0
      ],
      "type": "SCALAR"
    }
  ],
  "asset": {
    "extras": {
      "author": "Thomas Flynn (https://sketchfab.com/nebulousflynn)",
      "license": "CC-BY-4.0 (http://creativecommons.org/licenses/by/4.0/)",
      "source": "https://sketchfab.com/models/7987d22903294567842a5304fcd542f5",
      "title": "Shaggy Parasol Mushroom (Mature + Young)"
    },
    "generator": "Sketchfab-3.19.2",
    "version": "2.0"
  },
  "bufferViews": [
    {
      "buffer": 0,
      "byteLength": 448308,
      "byteOffset": 0,
      "name": "floatBufferViews",
      "target": 34963
    },
    {
      "buffer": 0,
      "byteLength": 203224,
      "byteOffset": 448308,
      "byteStride": 8,
      "name": "floatBufferViews",
      "target": 34962
    },
    {
      "buffer": 0,
      "byteLength": 609672,
      "byteOffset": 651532,
      "byteStride": 12,
      "name": "floatBufferViews",
      "target": 34962
    },
    {
      "buffer": 0,
      "byteLength": 406448,
      "byteOffset": 1261204,
      "byteStride": 16,
      "name": "floatBufferViews",
      "target": 34962
    }
  ],
  "buffers": [
    {
      "byteLength": 1667652,
      "uri": "scene.bin"
    }
  ],
  "extensionsUsed": [
    "KHR_materials_unlit"
  ],
  "images": [
    {
      "uri": "textures/mushroom-2_mushroom-2.jpg_baseColor.jpeg"
    },
    {
      "uri": "textures/mushroom-2_baseColor.jpeg"
    }
  ],
  "materials": [
    {
      "doubleSided": true,
      "emissiveFactor": [
        0,
        0,
        0
      ],
      "extensions": {
        "KHR_materials_unlit": {}
      },
      "name": "mushroom-2",
      "pbrMetallicRoughness": {
        "baseColorFactor": [
          0.19,
          0.19,
          0.19,
          1
        ],
        "baseColorTexture": {
          "index": 1,
          "texCoord": 0
        },
        "metallicFactor": 0,
        "roughnessFactor": 1
      }
    },
    {
      "doubleSided": true,
      "emissiveFactor": [
        0,
        0,
        0
      ],
      "extensions": {
        "KHR_materials_unlit": {}
      },
      "name": "mushroom-2_mushroom-2.jpg",
      "pbrMetallicRoughness": {
        "baseColorFactor": [
          1,
          1,
          1,
          1
        ],
        "baseColorTexture": {
          "index": 0,
          "texCoord": 0
        },
        "metallicFactor": 0,
        "roughnessFactor": 1
      }
    }
  ],
  "meshes": [
    {
      "primitives": [
        {
          "attributes": {
            "NORMAL": 1,
            "POSITION": 0,
            "TANGENT": 2,
            "TEXCOORD_0": 3
          },
          "indices": 4,
          "material": 0,
          "mode": 4
        }
      ]
    },
    {
      "primitives": [
        {
          "attributes": {
            "NORMAL": 6,
            "POSITION": 5,
            "TANGENT": 7,
            "TEXCOORD_0": 8
          },
          "indices": 9,
          "material": 1,
          "mode": 4
        }
      ]
    }
  ],
  "nodes": [
    {
      "children": [
        1
      ],
      "name": "RootNode (gltf orientation matrix)",
      "rotation": [
        -0.70710678118654746,
        -0,
        -0,
        0.70710678118654757
      ]
    },
    {
      "children": [
        2
      ],
      "name": "RootNode (model correction matrix)"
    },
    {
      "children": [
        3,
        4
      ],
      "name": "mushroom-2.obj.cleaner"
    },
    {
      "mesh": 0,
      "name": ""
    },
    {
      "mesh": 1,
      "name": ""
    }
  ],
  "samplers": [
    {
      "magFilter": 9729,
      "minFilter": 9987,
      "wrapS": 10497,
      "wrapT": 10497
    }
  ],
  "scene": 0,
  "scenes": [
    {
      "name": "OSG_Scene",
      "nodes": [
        0
      ]
    }
  ],
  "textures": [
    {
      "sampler": 0,
      "source": 0
    },
    {
      "sampler": 0,
      "source": 1
    }
  ]
}

